# xmcd
#
# Track frame offsets:
#	182
#	12070
#	30045
#	46692
#	57570
#	76402
#	90785
#	108532
#	126015
#	138085
#	153657
#	173590
#
# Disc length: 2572 seconds
#
# Revision: 1
# Processed by: cddbd v1.5.1PL2 Copyright (c) Steve Scherf et al.
# Submitted via: audiograbber 1.83.01
#
DISCID=7e0a0a0c
DTITLE=Paul Daraiche - L'oiseau Sauvage
DYEAR=1900
DGENRE=
TTITLE0=Le chasseur
TTITLE1=Près de mon église
TTITLE2=Juliana
TTITLE3=Comme un million de gens
TTITLE4=Pardonne-moi
TTITLE5=Quand les blés seront levés
TTITLE6=Le vieux du bas du fleuve
TTITLE7=Comme j'ai toujours envie d'aimer
TTITLE8=Je veux garder cette image
TTITLE9=L'oiseau sauvage
TTITLE10=Laisse-moi t'aimer
TTITLE11=Quand j'ai besoin
EXTD=
EXTT0=
EXTT1=
EXTT2=
EXTT3=
EXTT4=
EXTT5=
EXTT6=
EXTT7=
EXTT8=
EXTT9=
EXTT10=
EXTT11=
PLAYORDER=
